<svg width="589" height="119" viewBox="0 0 589 119" fill="none" xmlns="http://www.w3.org/2000/svg">
<g clip-path="url(#clip0_18_2)">
<path d="M20.8295 23.1818V93H6.06818V23.1818H20.8295ZM32.9744 93V23.1818H60.5199C65.8153 23.1818 70.3267 24.1932 74.054 26.2159C77.7813 28.2159 80.6222 31 82.5767 34.5682C84.554 38.1136 85.5426 42.2045 85.5426 46.8409C85.5426 51.4773 84.5426 55.5682 82.5426 59.1136C80.5426 62.6591 77.6449 65.4205 73.8494 67.3977C70.0767 69.375 65.5085 70.3636 60.1449 70.3636H42.5881V58.5341H57.7585C60.5994 58.5341 62.9403 58.0455 64.7812 57.0682C66.6449 56.0682 68.0313 54.6932 68.9403 52.9432C69.8722 51.1705 70.3381 49.1364 70.3381 46.8409C70.3381 44.5227 69.8722 42.5 68.9403 40.7727C68.0313 39.0227 66.6449 37.6705 64.7812 36.7159C62.9176 35.7386 60.554 35.25 57.6903 35.25H47.7358V93H32.9744ZM125.702 52.3295V63.8523H93.8608V52.3295H125.702ZM196.747 23.1818V93H183.997L153.622 49.0568H153.111V93H138.349V23.1818H151.304L181.44 67.0909H182.054V23.1818H196.747ZM208.943 93V23.1818H255.17V35.3523H223.705V51.9886H252.102V64.1591H223.705V93H208.943ZM262.44 35.3523V23.1818H319.781V35.3523H298.406V93H283.815V35.3523H262.44Z" fill="black"/>
<path d="M327.852 77L333.648 42.0909H356.761L355.739 48.1761H340.006L338.642 56.4943H352.841L351.818 62.5795H337.619L335.233 77H327.852ZM355.372 77L359.736 50.8182H366.776L366.009 55.3864H366.281C367.031 53.7614 368.037 52.5341 369.298 51.7045C370.571 50.8636 371.94 50.4432 373.406 50.4432C373.77 50.4432 374.151 50.4659 374.548 50.5114C374.957 50.5455 375.321 50.6023 375.639 50.6818L374.548 57.142C374.23 57.0284 373.776 56.9375 373.185 56.8693C372.605 56.7898 372.054 56.75 371.531 56.75C370.474 56.75 369.491 56.983 368.582 57.4489C367.673 57.9034 366.906 58.5398 366.281 59.358C365.668 60.1761 365.264 61.1193 365.071 62.1875L362.634 77H355.372ZM381.661 77.4943C380.001 77.4943 378.564 77.2045 377.348 76.625C376.143 76.0341 375.257 75.1591 374.689 74C374.121 72.8409 373.979 71.4034 374.263 69.6875C374.513 68.233 374.984 67.017 375.678 66.0398C376.382 65.0511 377.24 64.2557 378.251 63.6534C379.263 63.0511 380.382 62.5909 381.609 62.2727C382.848 61.9545 384.126 61.7386 385.445 61.625C386.967 61.4659 388.206 61.3125 389.161 61.1648C390.126 61.017 390.848 60.8068 391.325 60.5341C391.803 60.25 392.092 59.8295 392.195 59.2727V59.1705C392.365 58.1023 392.166 57.2727 391.598 56.6818C391.041 56.0795 390.149 55.7784 388.922 55.7784C387.626 55.7784 386.524 56.0625 385.615 56.6307C384.717 57.1989 384.075 57.9205 383.689 58.7955L377.075 58.25C377.666 56.6591 378.558 55.2841 379.751 54.125C380.956 52.9545 382.405 52.0568 384.098 51.4318C385.791 50.7955 387.689 50.4773 389.791 50.4773C391.246 50.4773 392.604 50.6477 393.865 50.9886C395.138 51.3295 396.234 51.858 397.155 52.5739C398.087 53.2898 398.757 54.2102 399.166 55.3352C399.587 56.4489 399.672 57.7841 399.422 59.3409L396.473 77H389.587L390.2 73.3693H389.996C389.439 74.1875 388.757 74.9091 387.95 75.5341C387.143 76.1477 386.217 76.6307 385.172 76.983C384.126 77.3239 382.956 77.4943 381.661 77.4943ZM384.575 72.483C385.632 72.483 386.604 72.2727 387.49 71.8523C388.388 71.4205 389.126 70.8409 389.706 70.1136C390.297 69.3864 390.672 68.5625 390.831 67.642L391.274 64.8636C391.047 65.0114 390.717 65.142 390.286 65.2557C389.865 65.3693 389.405 65.4773 388.905 65.5795C388.416 65.6705 387.922 65.7557 387.422 65.8352C386.922 65.9034 386.473 65.9716 386.075 66.0398C385.2 66.1648 384.416 66.3636 383.723 66.6364C383.03 66.9091 382.467 67.2784 382.036 67.7443C381.604 68.1989 381.337 68.767 381.234 69.4489C381.075 70.4375 381.308 71.1932 381.933 71.7159C382.57 72.2273 383.45 72.483 384.575 72.483ZM413.868 77.5114C411.175 77.5114 408.959 76.9432 407.22 75.8068C405.493 74.6591 404.283 73.0682 403.589 71.0341C402.908 69 402.788 66.6591 403.232 64.0114C403.663 61.3295 404.567 58.9773 405.942 56.9545C407.317 54.9205 409.061 53.3352 411.175 52.1989C413.3 51.0511 415.686 50.4773 418.334 50.4773C420.618 50.4773 422.55 50.892 424.129 51.7216C425.709 52.5511 426.868 53.7159 427.607 55.2159C428.345 56.7159 428.595 58.4773 428.357 60.5H421.521C421.533 59.2045 421.197 58.1534 420.516 57.3466C419.834 56.5398 418.834 56.1364 417.516 56.1364C416.379 56.1364 415.334 56.4432 414.379 57.0568C413.436 57.6591 412.635 58.5398 411.976 59.6989C411.328 60.858 410.874 62.2614 410.612 63.9091C410.339 65.5795 410.334 67 410.595 68.1705C410.857 69.3409 411.357 70.233 412.095 70.8466C412.834 71.4602 413.766 71.767 414.891 71.767C415.732 71.767 416.51 71.5966 417.226 71.2557C417.953 70.9148 418.589 70.4205 419.135 69.7727C419.68 69.1136 420.101 68.3239 420.396 67.4034H427.249C426.783 69.4148 425.936 71.1761 424.709 72.6875C423.493 74.1989 421.964 75.3807 420.124 76.233C418.283 77.0852 416.197 77.5114 413.868 77.5114ZM448.568 50.8182L447.665 56.2727H431.881L432.801 50.8182H448.568ZM437.403 44.5455H444.665L440.608 68.9545C440.494 69.625 440.511 70.1477 440.659 70.5227C440.807 70.8864 441.051 71.142 441.392 71.2898C441.744 71.4375 442.165 71.5114 442.653 71.5114C442.994 71.5114 443.341 71.483 443.693 71.4261C444.045 71.358 444.313 71.3068 444.494 71.2727L444.767 76.6761C444.358 76.8011 443.807 76.9375 443.114 77.0852C442.432 77.233 441.625 77.3239 440.693 77.358C438.92 77.4261 437.42 77.1932 436.193 76.6591C434.966 76.1136 434.085 75.2784 433.551 74.1534C433.017 73.0284 432.903 71.6136 433.21 69.9091L437.403 44.5455ZM448.935 77L453.298 50.8182H460.56L456.196 77H448.935ZM457.679 47.4091C456.599 47.4091 455.707 47.0511 455.003 46.3352C454.31 45.608 454.026 44.7443 454.151 43.7443C454.276 42.7216 454.764 41.858 455.616 41.1534C456.469 40.4375 457.435 40.0795 458.514 40.0795C459.594 40.0795 460.474 40.4375 461.156 41.1534C461.838 41.858 462.122 42.7216 462.009 43.7443C461.895 44.7443 461.412 45.608 460.56 46.3352C459.719 47.0511 458.759 47.4091 457.679 47.4091ZM473.876 77.5114C471.206 77.5114 468.996 76.9432 467.246 75.8068C465.496 74.6591 464.263 73.0682 463.547 71.0341C462.842 68.9886 462.712 66.608 463.155 63.892C463.587 61.2102 464.484 58.8636 465.848 56.8523C467.212 54.8409 468.945 53.2784 471.047 52.1648C473.149 51.0398 475.518 50.4773 478.155 50.4773C480.814 50.4773 483.018 51.0511 484.768 52.1989C486.518 53.3352 487.751 54.9261 488.467 56.9716C489.183 59.017 489.32 61.3977 488.876 64.1136C488.433 66.7841 487.524 69.125 486.149 71.1364C484.774 73.1477 483.041 74.7159 480.95 75.8409C478.859 76.9545 476.501 77.5114 473.876 77.5114ZM474.592 71.8864C475.82 71.8864 476.905 71.5398 477.848 70.8466C478.803 70.142 479.592 69.1875 480.217 67.983C480.854 66.767 481.297 65.392 481.547 63.858C481.797 62.3466 481.814 61.0057 481.598 59.8352C481.382 58.6534 480.928 57.7216 480.234 57.0398C479.553 56.358 478.615 56.017 477.422 56.017C476.195 56.017 475.104 56.3693 474.149 57.0739C473.195 57.767 472.405 58.7216 471.78 59.9375C471.155 61.1534 470.717 62.5341 470.467 64.0795C470.229 65.5795 470.212 66.9205 470.416 68.1023C470.621 69.2727 471.07 70.1989 471.763 70.8807C472.456 71.5511 473.399 71.8864 474.592 71.8864ZM501.268 61.8636L498.746 77H491.501L495.865 50.8182H502.768L502.018 55.4375H502.308C503.138 53.9034 504.308 52.6932 505.82 51.8068C507.342 50.9205 509.075 50.4773 511.018 50.4773C512.837 50.4773 514.354 50.875 515.57 51.6705C516.797 52.4659 517.661 53.5966 518.161 55.0625C518.672 56.5284 518.757 58.2841 518.416 60.3295L515.621 77H508.359L510.933 61.625C511.195 60.0227 510.99 58.7727 510.32 57.875C509.661 56.9659 508.598 56.5114 507.132 56.5114C506.155 56.5114 505.257 56.7216 504.439 57.142C503.621 57.5625 502.933 58.1761 502.376 58.983C501.831 59.7784 501.462 60.7386 501.268 61.8636ZM546.179 58.2841L539.582 58.6932C539.548 58.1136 539.389 57.5966 539.105 57.142C538.832 56.6761 538.429 56.3068 537.895 56.0341C537.372 55.7614 536.713 55.625 535.918 55.625C534.724 55.625 533.662 55.8977 532.73 56.4432C531.798 56.9886 531.27 57.6875 531.145 58.5398C531.043 59.0852 531.185 59.5455 531.571 59.9205C531.957 60.2955 532.736 60.6136 533.906 60.875L538.509 61.8295C540.963 62.3523 542.736 63.2216 543.827 64.4375C544.929 65.6534 545.321 67.2443 545.003 69.2102C544.719 70.8807 543.986 72.3409 542.804 73.5909C541.622 74.8295 540.122 75.7955 538.304 76.4886C536.486 77.1705 534.469 77.5114 532.253 77.5114C528.696 77.5114 525.991 76.7841 524.139 75.3295C522.287 73.875 521.395 71.9034 521.463 69.4148L528.554 69.0398C528.611 70.108 528.986 70.9148 529.679 71.4602C530.372 71.9943 531.321 72.267 532.526 72.2784C533.878 72.3011 535.026 72.0227 535.969 71.4432C536.923 70.8523 537.463 70.1364 537.588 69.2955C537.679 68.7045 537.509 68.2273 537.077 67.8636C536.656 67.5 535.884 67.1989 534.759 66.9602L530.395 66.0568C527.918 65.5455 526.139 64.6307 525.06 63.3125C523.98 61.9943 523.611 60.3182 523.952 58.2841C524.224 56.6591 524.901 55.267 525.98 54.108C527.071 52.9375 528.474 52.0398 530.19 51.4148C531.918 50.7898 533.866 50.4773 536.037 50.4773C539.435 50.4773 541.991 51.1761 543.707 52.5739C545.435 53.9716 546.259 55.875 546.179 58.2841Z" fill="black"/>
</g>
<defs>
<clipPath id="clip0_18_2">
<rect width="589" height="119" fill="white"/>
</clipPath>
</defs>
</svg>
