<?xml version="1.0" encoding="UTF-8"?>
<svg width="3949px" height="671px" viewBox="0 0 3949 671" version="1.1" xmlns="http://www.w3.org/2000/svg" xmlns:xlink="http://www.w3.org/1999/xlink">
    <title>Group_1</title>
    <g id="Page-1" stroke="none" stroke-width="1" fill="none" fill-rule="evenodd">
        <g id="Group_1" fill-rule="nonzero">
            <path d="M389.529,316.513 L670.956,316.513 C666.946,242.56 638.472,172.033 590.013,116.033 L389.529,316.513 Z" id="Path" fill="#00D4C8"></path>
            <path d="M357.876,284.86 L558.649,84.0733 C502.961,34.4587 432.295,4.86533 357.876,0 L357.876,284.86 Z" id="Path" fill="#00D4C8"></path>
            <path d="M389.529,361.313 L586.583,558.353 C635.332,503.619 664.765,434.395 670.359,361.313 L389.529,361.313 Z" id="Path" fill="#00D4C8"></path>
            <path d="M357.876,670.353 C430.485,665.598 499.569,637.285 554.623,589.713 L357.876,392.967 L357.876,670.353 Z" id="Path" fill="#00D4C8"></path>
            <path d="M313.076,284.86 L313.076,0.00665283 C238.655,4.87119 167.983,34.4653 112.303,84.08 L313.076,284.86 Z" id="Path" fill="#00D4C8"></path>
            <path d="M281.423,316.513 L80.9427,116.033 C32.484,172.039 4.01067,242.56 0,316.513 L281.423,316.513 Z" id="Path" fill="#00D4C8"></path>
            <path d="M313.076,392.967 L116.329,589.713 C171.386,637.287 240.465,665.599 313.076,670.353 L313.076,392.967 Z" id="Path" fill="#00D4C8"></path>
            <path d="M281.423,361.313 L0.596191,361.313 C6.18993,434.396 35.6229,503.62 84.3722,558.353 L281.423,361.313 Z" id="Path" fill="#00D4C8"></path>
            <path d="M959,488 L959,208 L898.6,208 L898.6,488 L959,488 Z M1074.63,488 L1074.63,386 L1117.43,386 C1171.43,386 1235.03,376.8 1235.03,296.4 C1235.03,216 1170.23,208 1117.43,208 L1014.23,208 L1014.23,488 L1074.63,488 Z M1074.63,255.2 L1116.23,255.2 C1147.43,255.2 1174.23,256 1174.23,296.4 C1174.23,336.8 1147.43,338.8 1115.83,338.8 L1074.63,338.8 L1074.63,255.2 Z M1391.67,374 L1391.67,324 L1263.67,324 L1263.67,374 L1391.67,374 Z M1496.42,488 L1496.42,359.2 C1496.42,351.2 1495.62,312.4 1494.02,281.6 L1494.82,281.6 C1503.62,306.4 1520.02,336.4 1529.62,354.4 L1599.22,488 L1668.82,488 L1668.82,208 L1612.02,208 L1612.02,335.6 C1612.02,352 1612.82,389.6 1614.42,416.4 L1613.62,416.4 C1604.02,390.8 1586.82,359.2 1575.62,337.2 L1509.22,208 L1439.62,208 L1439.62,488 L1496.42,488 Z M1783.99,488 L1783.99,370.8 L1905.99,370.8 L1905.99,322.4 L1783.99,322.4 L1783.99,256.4 L1920.79,256.4 L1920.79,208 L1723.99,208 L1723.99,488 L1783.99,488 Z M2086.3,488 L2086.3,258.8 L2175.5,258.8 L2175.5,208 L1936.7,208 L1936.7,258.8 L2025.9,258.8 L2025.9,488 L2086.3,488 Z M2335.16,488 L2335.16,370.8 L2457.16,370.8 L2457.16,322.4 L2335.16,322.4 L2335.16,256.4 L2471.96,256.4 L2471.96,208 L2275.16,208 L2275.16,488 L2335.16,488 Z M2606.17,283.6 C2573.77,286 2556.57,302.8 2549.77,325.2 L2549.77,288 L2494.57,288 L2494.57,488 L2550.57,488 L2550.57,398.8 C2550.57,350.4 2571.37,332.8 2608.97,332.8 C2612.57,332.8 2616.17,333.2 2619.37,333.6 L2620.57,283.2 C2616.97,283.2 2609.37,283.2 2606.17,283.6 Z M2816.27,349.2 C2816.27,305.6 2784.27,283.2 2732.27,283.2 C2702.27,283.2 2679.87,288.4 2664.27,299.2 C2647.87,310.4 2639.07,328.8 2639.07,354.8 L2693.87,358.8 C2693.87,330.8 2706.27,322.8 2728.27,322.8 C2744.27,322.8 2751.87,325.6 2757.07,332.8 C2762.27,340 2761.87,349.6 2761.87,358.8 L2707.47,368.8 C2667.47,376 2631.87,388.4 2631.87,431.2 C2631.87,472.4 2663.47,492.8 2702.67,492.8 C2734.67,492.8 2755.47,478.4 2765.07,461.2 C2765.47,470.8 2766.67,480.8 2768.67,488 L2824.27,488 L2824.27,486.4 C2819.87,478 2816.27,467.2 2816.27,452 L2816.27,349.2 Z M2761.87,410.4 C2761.87,440.8 2742.67,453.2 2716.27,453.2 C2701.07,453.2 2689.47,446.4 2689.47,430.8 C2689.47,415.6 2699.87,409.2 2716.67,405.6 L2761.87,395.6 L2761.87,410.4 Z M2952.6,492.8 C3005.4,492.8 3039,463.2 3045.4,422.4 L2991,416.8 C2985.8,438.4 2973.8,451.2 2952.6,451.2 C2919.8,451.2 2910.6,430 2910.6,388 C2910.6,365.6 2913.4,348.4 2921.4,338 C2927.8,329.2 2937.8,324.8 2952.6,324.8 C2978.6,324.8 2987,343.2 2991,364.8 L3044.2,355.6 C3036.2,313.2 3007.8,283.2 2952.6,283.2 C2887,283.2 2849.8,326.4 2849.8,388 C2849.8,453.6 2887,492.8 2952.6,492.8 Z M3155.43,490 C3165.83,490 3176.63,489.2 3185.03,487.2 L3184.23,439.6 C3177.83,440.8 3171.03,441.6 3165.83,441.6 C3152.23,441.6 3145.03,438.4 3145.03,427.2 L3145.03,332 L3185.83,332 L3185.83,288 L3145.03,288 L3145.03,232.4 L3089.83,232.4 L3089.83,288 L3061.03,288 L3061.03,332 L3089.83,332 L3089.83,433.6 C3089.83,475.2 3117.03,490 3155.43,490 Z M3276.35,261.6 L3276.35,204 L3220.35,204 L3220.35,261.6 L3276.35,261.6 Z M3276.35,488 L3276.35,288 L3220.35,288 L3220.35,488 L3276.35,488 Z M3414.33,492.8 C3477.13,492.8 3517.93,450.8 3517.93,388 C3517.93,327.6 3478.33,283.2 3414.33,283.2 C3349.53,283.2 3310.33,327.2 3310.33,388 C3310.33,453.2 3349.13,492.8 3414.33,492.8 Z M3414.33,452.8 C3400.33,452.8 3389.93,449.2 3383.13,440.8 C3374.33,431.2 3370.33,414 3370.33,388 C3370.33,362 3374.33,345.2 3382.73,335.2 C3389.93,326.8 3400.33,323.2 3414.33,323.2 C3428.33,323.2 3438.73,326.8 3445.93,336 C3453.93,346 3457.93,362.4 3457.93,388 C3457.93,413.6 3454.33,430.4 3445.93,440.4 C3439.13,449.2 3428.73,452.8 3414.33,452.8 Z M3719.99,302 C3707.19,289.2 3692.39,283.2 3666.79,283.2 C3640.79,283.2 3617.99,292.8 3607.59,318 L3607.59,288 L3551.99,288 L3551.99,488 L3607.99,488 L3607.99,378.8 C3607.99,337.6 3627.99,326 3645.19,326 C3657.19,326 3663.99,327.2 3671.19,334 C3679.99,342.4 3681.59,352 3681.59,370.4 L3681.59,488 L3737.99,488 L3737.99,365.6 C3737.99,339.6 3735.99,318 3719.99,302 Z M3859.29,492.8 C3906.09,492.8 3948.49,477.6 3948.49,429.6 C3948.49,382 3904.09,372.4 3868.49,364.4 C3841.69,358.4 3827.29,353.6 3827.29,340 C3827.29,326 3840.89,320 3857.29,320 C3877.29,320 3890.49,330 3891.69,352.4 L3943.29,343.6 C3938.09,298 3900.49,283.2 3856.49,283.2 C3813.29,283.2 3774.49,300.4 3774.49,344.4 C3774.49,385.6 3809.69,397.6 3848.09,406.8 C3879.69,414.4 3894.89,419.2 3894.89,432.4 C3894.89,447.2 3883.29,455.6 3860.49,455.6 C3838.09,455.6 3822.09,444.8 3821.29,420.8 L3768.09,427.6 C3772.09,473.6 3811.69,492.8 3859.29,492.8 Z" id="Shape" fill="#000000"></path>
        </g>
    </g>
</svg>